<?xml version="1.0" standalone="no"?>
<!DOCTYPE svg PUBLIC "-//W3C//DTD SVG 20010904//EN"
 "http://www.w3.org/TR/2001/REC-SVG-20010904/DTD/svg10.dtd">
<svg version="1.0" xmlns="http://www.w3.org/2000/svg"
 width="476.000000pt" height="480.000000pt" viewBox="0 0 476.000000 480.000000"
 preserveAspectRatio="xMidYMid meet">

<g transform="translate(0.000000,480.000000) scale(0.100000,-0.100000)"
fill="#000000" stroke="none">
<path d="M1341 4099 c-17 -50 -13 -196 7 -255 47 -134 169 -277 287 -337 82
-41 150 -63 260 -82 109 -20 134 -19 196 9 30 13 79 29 109 36 56 13 208 74
290 115 25 13 86 53 135 90 133 99 211 134 331 150 49 6 52 5 74 -25 12 -17
23 -46 24 -63 1 -32 1 -32 -59 -38 -86 -9 -150 -38 -304 -138 -214 -139 -243
-153 -395 -190 -47 -11 -42 -29 9 -37 182 -27 484 88 798 305 21 14 50 33 65
42 24 15 27 21 26 72 -3 146 -149 294 -339 342 -139 34 -281 41 -340 15 -11
-5 -47 -16 -80 -25 -33 -8 -109 -33 -170 -54 -60 -22 -137 -45 -170 -51 -33
-7 -72 -17 -87 -22 -16 -6 -80 -8 -150 -6 -103 4 -139 10 -218 36 -85 28 -216
102 -235 132 -3 5 -17 10 -30 10 -17 0 -26 -8 -34 -31z m300 -254 c127 -66
277 -81 409 -42 l55 16 27 -26 c59 -56 42 -103 -48 -129 -72 -21 -263 -21
-332 -1 -107 32 -222 107 -222 146 0 30 18 71 32 71 6 0 42 -16 79 -35z"/>
<path d="M3231 3569 c-99 -107 -129 -299 -73 -457 37 -105 83 -180 158 -258
82 -85 97 -85 124 4 36 120 48 211 46 347 -2 100 -6 137 -19 160 -9 17 -17 38
-17 48 0 26 -45 111 -81 152 -26 29 -38 35 -71 35 -31 0 -45 -6 -67 -31z"/>
<path d="M1338 3493 c-27 -33 -59 -128 -71 -211 -8 -63 -8 -110 1 -191 13
-112 45 -258 61 -274 46 -46 216 138 262 283 20 65 30 234 15 258 -4 6 -34 26
-67 43 -33 18 -80 50 -103 71 -48 42 -75 47 -98 21z"/>
<path d="M2900 3350 c-36 -22 -101 -53 -145 -69 -79 -28 -252 -70 -290 -70
-11 0 -52 0 -90 -1 -39 0 -113 8 -165 19 -52 10 -132 22 -178 26 -46 3 -107
13 -135 20 -29 7 -73 16 -98 20 l-46 7 -5 -84 c-10 -166 -78 -310 -207 -438
l-66 -65 6 -175 c8 -215 37 -393 91 -565 74 -238 173 -407 307 -523 151 -130
361 -210 521 -199 159 11 354 97 477 210 132 121 274 347 297 470 3 12 5 23 7
25 1 1 2 5 3 10 1 4 5 12 9 18 4 7 9 28 12 48 2 20 8 42 12 49 4 6 8 19 10 27
5 38 16 107 20 130 3 14 7 131 9 260 l5 235 -71 75 c-71 75 -152 204 -165 265
-4 17 -11 39 -17 51 -5 12 -8 74 -6 142 3 116 2 122 -17 122 -11 0 -49 -18
-85 -40z"/>
<path d="M1205 2688 c-56 -33 -86 -108 -75 -190 9 -64 28 -103 73 -154 34 -40
117 -84 156 -84 20 0 22 3 15 23 -4 12 -10 98 -13 192 -6 163 -7 170 -28 181
-13 6 -31 18 -41 27 -21 20 -58 21 -87 5z"/>
<path d="M3476 2671 c-10 -11 -31 -23 -47 -26 -36 -8 -38 -20 -41 -228 l-3
-157 23 0 c59 0 156 81 191 160 30 69 33 123 10 185 -29 79 -93 110 -133 66z"/>
<path d="M2865 1273 c-81 -60 -198 -118 -292 -145 -99 -28 -273 -30 -377 -5
-78 20 -225 91 -305 148 -84 60 -86 55 -84 -191 2 -231 6 -245 87 -316 92 -80
294 -166 434 -184 113 -15 208 7 369 85 100 48 145 76 187 117 l56 54 0 236
c0 130 -3 239 -7 241 -5 2 -35 -16 -68 -40z"/>
<path d="M3091 1020 c4 -29 13 -58 19 -65 6 -8 39 -25 73 -38 34 -14 114 -48
177 -77 63 -28 158 -70 210 -92 124 -54 286 -138 381 -199 112 -72 179 -64
179 23 0 46 -17 60 -172 146 -242 136 -686 319 -839 347 l-36 7 8 -52z"/>
<path d="M1615 1053 c-276 -60 -867 -346 -913 -441 -15 -30 -15 -35 0 -60 21
-35 71 -42 102 -14 45 40 353 212 379 212 4 0 37 14 74 31 38 17 128 56 202
85 204 83 192 74 207 157 7 39 2 42 -51 30z"/>
</g>
</svg>
