<?xml version="1.0" standalone="no"?>
<!DOCTYPE svg PUBLIC "-//W3C//DTD SVG 20010904//EN"
 "http://www.w3.org/TR/2001/REC-SVG-20010904/DTD/svg10.dtd">
<svg version="1.0" xmlns="http://www.w3.org/2000/svg"
 width="476.000000pt" height="488.000000pt" viewBox="0 0 476.000000 488.000000"
 preserveAspectRatio="xMidYMid meet">

<g transform="translate(0.000000,488.000000) scale(0.100000,-0.100000)"
fill="#000000" stroke="none">
<path d="M1333 4285 c-116 -50 -161 -328 -85 -518 18 -43 32 -83 32 -89 0 -6
-14 -26 -31 -46 -38 -43 -82 -135 -104 -217 -34 -122 -29 -322 11 -550 5 -27
1 -32 -31 -50 -161 -85 -193 -336 -68 -521 61 -89 145 -145 264 -174 l46 -12
17 -81 c42 -196 128 -385 254 -553 22 -29 24 -43 29 -215 l5 -184 -162 -53
c-283 -92 -560 -217 -737 -332 -75 -49 -103 -80 -103 -114 0 -26 41 -66 67
-66 13 0 71 28 126 63 190 118 265 155 522 254 101 39 255 93 266 93 4 0 10
-21 14 -47 11 -78 43 -140 98 -188 61 -55 225 -145 372 -204 105 -41 115 -43
210 -43 176 0 341 54 516 167 138 89 199 175 199 281 0 18 4 35 9 38 9 6 79
-18 256 -87 157 -60 397 -181 500 -252 118 -80 162 -90 198 -43 17 22 19 33
11 60 -24 84 -411 291 -764 409 l-205 69 -6 72 c-4 40 -8 121 -10 179 l-2 107
35 43 c129 159 201 322 262 590 5 21 14 28 43 34 60 11 172 75 229 130 82 80
134 199 134 307 0 107 -63 227 -146 276 -38 23 -44 31 -39 52 42 177 53 335
31 455 -24 127 -52 206 -97 274 -45 68 -87 102 -164 136 -52 23 -55 27 -55 60
0 42 -33 146 -63 195 -110 183 -284 277 -552 295 -108 7 -201 -9 -350 -61 -55
-20 -151 -53 -213 -75 -131 -46 -208 -56 -311 -40 -88 14 -172 52 -261 118
-101 76 -134 85 -197 58z m132 -210 c60 -48 122 -76 235 -106 70 -18 103 -21
204 -17 116 5 126 7 261 57 282 106 376 128 517 117 236 -16 432 -171 454
-357 6 -49 4 -58 -12 -67 -11 -6 -53 -39 -96 -74 -205 -169 -522 -299 -727
-297 l-56 0 95 33 c133 46 218 91 345 186 134 100 216 139 307 147 63 5 66 7
72 34 7 38 -3 85 -22 101 -24 20 -129 13 -197 -13 -72 -27 -87 -36 -191 -114
-176 -135 -259 -180 -432 -235 -53 -17 -100 -37 -104 -43 -11 -18 -194 -10
-283 13 -181 46 -327 164 -409 330 -65 132 -83 249 -51 326 16 40 15 40 90
-21z m1855 -506 c51 -50 92 -136 115 -245 15 -71 16 -99 7 -215 -10 -131 -33
-259 -52 -289 -14 -23 -54 5 -132 95 -80 91 -122 172 -144 275 -20 93 -14 170
19 273 20 62 33 86 64 112 21 19 48 34 59 35 12 0 40 -18 64 -41z m-1852 -107
c48 -43 102 -89 120 -101 31 -22 32 -24 32 -97 0 -133 -63 -271 -184 -400
l-64 -69 -21 20 c-12 11 -30 56 -43 105 -19 73 -22 111 -23 275 0 158 3 199
18 242 19 55 51 103 69 103 5 0 49 -35 96 -78z m1488 -189 c-1 -120 2 -146 21
-197 37 -97 102 -202 181 -289 l74 -82 -4 -235 c-4 -212 -7 -247 -32 -355 -65
-283 -145 -442 -316 -628 -265 -289 -685 -314 -976 -57 -94 82 -170 179 -239
300 -63 112 -87 172 -120 300 -37 143 -55 295 -57 497 -3 159 -1 184 13 195 9
7 29 32 43 56 14 23 31 42 37 42 5 0 20 21 31 48 11 26 32 61 46 77 47 56 122
242 122 303 0 39 -23 39 190 3 69 -12 146 -28 171 -36 113 -36 296 -30 469 16
90 24 262 106 310 148 19 17 35 30 36 31 0 0 0 -62 0 -137z m-1674 -609 l55
-37 5 -171 c3 -94 4 -173 1 -176 -9 -9 -95 45 -125 79 -47 54 -78 132 -78 199
0 52 4 63 36 100 19 23 39 42 43 42 5 0 33 -16 63 -36z m2244 8 c88 -71 73
-230 -31 -336 -32 -32 -88 -66 -110 -66 -7 0 -6 201 1 293 7 75 7 77 40 87 18
6 38 18 44 26 16 18 30 18 56 -4z m-621 -1609 l-2 -227 -50 -45 c-127 -117
-330 -196 -498 -195 -156 1 -441 131 -519 237 -20 27 -21 41 -21 225 0 108 3
205 8 215 7 17 10 17 42 -11 112 -99 322 -171 496 -172 90 0 229 32 331 78 51
22 157 91 177 115 7 9 18 14 25 11 10 -4 12 -57 11 -231z"/>
<path d="M1532 3875 c-7 -14 -12 -41 -12 -60 0 -28 8 -40 43 -68 80 -66 178
-102 302 -112 67 -6 91 -4 147 15 96 31 120 52 116 103 -2 30 -10 45 -31 61
-25 18 -31 19 -70 7 -111 -33 -128 -35 -194 -24 -40 7 -101 29 -157 57 -105
53 -128 56 -144 21z"/>
</g>
</svg>
